# xmcd CD database file
#
# Track frame offsets:
#	150
#	21732
#	37470
#	50022
#	70797
#	90117
#	107832
#	123155
#	137327
#	153322
#	174417
#
# Disc length: 2686 seconds
#
# Revision: 4
# Processed by: cddbd v1.5.2PL0 Copyright (c) Steve Scherf et al.
# Submitted via: CDex 1.79
#
DISCID=900a7c0b
DTITLE=Lari White - Stepping Stone
DYEAR=1998
DGENRE=Country
TTITLE0=John Wayne Walking Away
TTITLE1=Stepping Stone
TTITLE2=That's What You Do
TTITLE3=You Can't Go Home Again (Flies On The Butter)
TTITLE4=Only God Could Stop Me Loving You (featuring Toby Keith)
TTITLE5=On A Night Like This
TTITLE6=You Can't Take That From Me
TTITLE7=This Is Love
TTITLE8=Take Me
TTITLE9=Tired
TTITLE10=Look Homeward Angel
EXTD=Produced by Dann Huff\nadded by rlw YEAR: 1998
EXTT0=
EXTT1=
EXTT2=
EXTT3=
EXTT4=
EXTT5=
EXTT6=
EXTT7=
EXTT8=
EXTT9=
EXTT10=
PLAYORDER=
